<svg width="19" height="19" viewBox="0 0 19 19" fill="none" xmlns="http://www.w3.org/2000/svg">
<path d="M7.87866 18.5C7.76326 18.5 7.64762 18.4741 7.5436 18.4218C7.32871 18.314 7.19578 18.1117 7.19578 17.8922V9.52474L0.138608 1.24171C-0.0180009 1.05776 -0.0439506 0.810798 0.0712295 0.604153C0.186637 0.397305 0.423599 0.266632 0.682868 0.266632H18.2396C18.4991 0.266632 18.7359 0.397305 18.8513 0.604153C18.9667 0.810798 18.9407 1.05776 18.7839 1.24171L11.7267 9.52474V16.1846C11.7267 16.3971 11.602 16.594 11.3978 16.7042L8.23285 18.4119C8.12405 18.4704 8.00136 18.5 7.87866 18.5ZM2.05774 1.48219L8.42292 8.95322C8.51307 9.05877 8.56155 9.18783 8.56155 9.32053V16.8132L10.361 15.8424V9.32032C10.361 9.18783 10.4097 9.05878 10.4996 8.95302L16.8648 1.48219H2.05774Z" fill="#414141"/>
</svg>
