<svg width="25" height="33" viewBox="0 0 25 33" fill="none" xmlns="http://www.w3.org/2000/svg">
<path fill-rule="evenodd" clip-rule="evenodd" d="M15.0176 17.9595C15.1011 17.8805 15.1951 17.81 15.299 17.75C15.3711 17.7084 15.4452 17.6735 15.5205 17.645C18.962 15.3134 20.0656 10.6829 17.9545 7.02628C15.7453 3.19994 10.8526 1.88894 7.02628 4.09808C3.19994 6.30722 1.88894 11.1999 4.09808 15.0263C6.30554 18.8497 11.1925 20.1616 15.0176 17.9595ZM15.4901 21.0809C10.4116 23.3429 4.34141 21.4477 1.5 16.5263C-1.53757 11.2651 0.26506 4.53757 5.52628 1.5C10.7875 -1.53757 17.515 0.26506 20.5526 5.52628C23.2769 10.245 22.1078 16.1432 18.042 19.5009L24.3481 30.4234C24.7623 31.1408 24.5165 32.0582 23.799 32.4724C23.0816 32.8866 22.1642 32.6408 21.75 31.9234L15.4901 21.0809Z" fill="#3E3E3E"/>
</svg>
