<svg width="28" height="23" viewBox="0 0 28 23" fill="none" xmlns="http://www.w3.org/2000/svg"><path fill-rule="evenodd" clip-rule="evenodd" d="M0 1.70725C0 0.764363 0.764363 0 1.70725 0H26.2917C27.2346 0 27.9989 0.764363 27.9989 1.70725C27.9989 2.65014 27.2346 3.41451 26.2917 3.41451H1.70725C0.764362 3.41451 0 2.65014 0 1.70725ZM0 11.3621C0 10.4192 0.764363 9.65482 1.70725 9.65482H26.2917C27.2346 9.65482 27.9989 10.4192 27.9989 11.3621C27.9989 12.305 27.2346 13.0693 26.2917 13.0693H1.70725C0.764362 13.0693 0 12.305 0 11.3621ZM1.70725 19.3096C0.764363 19.3096 0 20.074 0 21.0169C0 21.9598 0.764362 22.7241 1.70725 22.7241H26.2917C27.2346 22.7241 27.9989 21.9598 27.9989 21.0169C27.9989 20.074 27.2346 19.3096 26.2917 19.3096H1.70725Z" fill="#3E3E3E"/></svg>
